/* XPM */
static char * carro_xpm[] = {
"32 27 14 1",
" 	c None",
".	c #111A13",
"+	c #000000",
"@	c #777777",
"#	c #0F0F0F",
"$	c #F7F7F7",
"%	c #C4A000",
"&	c #EDD400",
"*	c #FCE94F",
"=	c #3465A4",
"-	c #204A87",
";	c #729FCF",
">	c #7F7F7F",
",	c #EFEFEF",
"  ..........                    ",
" .+++@@@@+++.                   ",
" +##++++++##+                   ",
" ###++$$$+###                   ",
" +#++++++++#+++++++++           ",
"   +@@@@@@++++++++++++++        ",
" +++%%%%%%%%%%%%%%%%%%%++       ",
"++++%&&&&&&&+++++&&&&&%%++      ",
"+%%%%+&***&&+===-+&&*&&%%++     ",
"+%%%+&&***&&&+=;==+***&&%%+     ",
"+%&+&&******&&+=;-+***++@@@@@+  ",
"+%&+&&******&&+=;=+**++######++ ",
"+%++&*******&&+=;-+**+########++",
"+%++&*******&&+=;=+**+>>>,,,>>>+",
"+%++&*******&&+=;-+**+########++",
"+%&+&*******&&+=;=+**++######++ ",
"+%&+&&******&&+=;-+***++@@@@@+  ",
"+%%%+&&***&&&+=;==+&*&&&%%+     ",
"+%%%%+&***&&+===-+&&&&&%%++     ",
"++++%&&&&&&&+++++&&&&&%%++      ",
" +++%%%%%%%%%%%%%%%%%%%++       ",
"   +@@@@@@++++++++++++++        ",
" +#++++++++#+++++++++           ",
" ###++$$$+###                   ",
" +##++++++##+                   ",
" .+++@@@@+++.                   ",
"  ..........                    "};
